<svg xmlns="http://www.w3.org/2000/svg" xmlns:xlink="http://www.w3.org/1999/xlink" xmlns:a="http://ns.adobe.com/AdobeSVGViewerExtensions/3.0/" version="1.1" width="175" height="233" enable-background="new 71.949 263.089 175 233" xml:space="preserve"><rect id="backgroundrect" width="100%" height="100%" x="0" y="0" fill="none" stroke="none"/>
<defs>
</defs>





<g class="currentLayer"><title>Layer 1</title><path fill="#192135" d="M29.621,221.954c-0.273,0-0.551,0.004-0.828,0.016c-0.281,0.016-0.488,0.031-0.625,0.059v8.742  c0.047,0.012,0.133,0.023,0.25,0.027c0.121,0.008,0.246,0.016,0.383,0.02c0.137,0.008,0.27,0.012,0.391,0.02  c0.125,0.004,0.219,0.008,0.281,0.008c0.719,0,1.32-0.125,1.801-0.383c0.477-0.254,0.855-0.594,1.137-1.016  c0.277-0.422,0.473-0.91,0.586-1.461c0.113-0.555,0.168-1.121,0.168-1.707c0-0.508-0.051-1.023-0.148-1.539  c-0.102-0.516-0.285-0.977-0.551-1.387s-0.633-0.746-1.09-1.008C30.914,222.083,30.328,221.954,29.621,221.954 M25.613,219.864  c0.262-0.035,0.555-0.066,0.887-0.094c0.328-0.023,0.668-0.043,1.016-0.055s0.688-0.023,1.016-0.027  c0.328-0.008,0.625-0.012,0.887-0.012c1.156,0,2.145,0.164,2.961,0.484c0.824,0.324,1.488,0.777,1.996,1.363  c0.512,0.586,0.883,1.281,1.121,2.086c0.234,0.809,0.352,1.699,0.352,2.668c0,0.883-0.109,1.734-0.336,2.555  c-0.223,0.82-0.594,1.547-1.117,2.18c-0.523,0.637-1.207,1.145-2.062,1.527c-0.848,0.387-1.902,0.578-3.156,0.578  c-0.199,0-0.465-0.004-0.793-0.016c-0.332-0.016-0.672-0.027-1.027-0.047s-0.691-0.039-1.016-0.059  c-0.32-0.016-0.566-0.039-0.727-0.062V219.864z M47.258,219.864h2.555v13.051h-2.555V219.864z M66.238,226.11h4.863v5.816  c-0.52,0.438-1.145,0.754-1.871,0.953c-0.73,0.195-1.445,0.297-2.156,0.297c-0.832,0-1.605-0.133-2.32-0.391  c-0.715-0.262-1.332-0.668-1.855-1.223c-0.52-0.555-0.934-1.258-1.23-2.117c-0.297-0.855-0.445-1.875-0.445-3.059  c0-1.227,0.176-2.273,0.531-3.141c0.355-0.863,0.82-1.566,1.398-2.105s1.227-0.934,1.949-1.176c0.719-0.242,1.453-0.363,2.195-0.363  c0.746,0,1.402,0.059,1.969,0.168c0.566,0.113,1.016,0.23,1.352,0.355l-0.52,2.145c-0.312-0.125-0.66-0.223-1.047-0.289  c-0.383-0.07-0.875-0.102-1.473-0.102c-0.535,0-1.023,0.078-1.473,0.242c-0.445,0.16-0.836,0.426-1.164,0.789  c-0.328,0.367-0.586,0.84-0.766,1.41s-0.27,1.266-0.27,2.086c0,0.785,0.086,1.457,0.262,2.023c0.172,0.566,0.414,1.031,0.727,1.398  c0.309,0.367,0.676,0.637,1.09,0.812c0.418,0.172,0.863,0.258,1.332,0.258c0.324,0,0.641-0.039,0.953-0.117  c0.309-0.082,0.57-0.203,0.781-0.363v-2.461l-2.812-0.301V226.11z M82.57,219.864h2.551v13.051H82.57V219.864z M106.207,222.137  h-3.801v10.777h-2.555v-10.777h-3.824v-2.273h10.18V222.137z M118.477,227.973h2.797l-0.973-2.906l-0.391-2.051h-0.094l-0.391,2.066  L118.477,227.973z M121.832,230.024h-4.008l-0.988,2.891h-2.555l4.699-13.145h1.883l4.695,13.145h-2.684L121.832,230.024z   M144.258,232.915H136v-13.051h2.555v10.777h5.703V232.915z" id="svg_1"/><path fill="#458766" d="M117.633,184.579h0.055c0,5.879-0.094,12.383,0.027,18.715c0.094,4.785,3.195,7.555,7.938,7.598  c3.102,0.027,6.207-0.059,9.312-0.066c5.316-0.016,8.344-2.719,8.406-8.062c0.148-12.664,0.062-25.348,0.09-38.008  c0.004-1.188-0.5-1.711-1.672-1.691c-1.859,0.027-3.73,0.094-5.586-0.027c-1.781-0.113-2.363,0.5-2.355,2.328  c0.047,10.988,0.004,21.977-0.059,32.965c-0.027,4.793,0.773,4.219-4.398,4.34c-1.754,0.039-2.223-0.621-2.203-2.285  c0.07-6.891,0.027-13.781,0.027-20.672c0-4.906-0.023-9.809,0.016-14.715c0.011-1.406-0.469-2.039-1.957-1.961  c-1.797,0.098-3.609,0.137-5.398-0.008c-1.863-0.145-2.301,0.91-2.273,2.645C117.687,171.879,117.632,177.524,117.633,184.579   M86.57,186.93h0.027c0,1.176-0.004,2.758,0,4.188c0.02,4.156-0.164,8.281,0.117,12.426c0.328,4.758,3.238,7.199,7.996,7.23  c3.043,0.023,6.086,0.031,9.129-0.02c3.785-0.055,6.496-1.824,7.262-5.438c0.605-2.867,0.441-5.906,0.496-8.871  c0.008-0.32-0.805-0.91-1.258-0.934c-1.609-0.082-3.23-0.051-4.84,0.074c-3.766,0.293-3.445-0.203-3.465,3.73  c-0.02,3.492,0.453,3.328-3.297,3.32c-2.527-0.008-2.586-0.062-2.586-2.633c-0.004-8.262-0.004-16.523-0.004-24.785  c0-4.285,0-4.258,4.352-3.988c1.082,0.066,1.59,0.441,1.547,1.57c-0.051,1.363,0.016,2.734-0.016,4.098  c-0.027,1.273,0.555,1.805,1.816,1.73c2.105-0.125,4.219-0.219,6.328-0.289c1.094-0.035,1.539-0.555,1.516-1.641  c-0.043-1.926,0.059-3.855-0.043-5.773c-0.262-4.824-3.348-7.781-8.152-7.855c-2.73-0.047-5.465-0.023-8.199-0.008  c-5.738,0.027-8.738,3.152-8.727,8.859C86.578,176.891,86.57,182.227,86.57,186.93 M165.453,182.411c0-2.48,0.02-4.961-0.008-7.441  c0.027,2.48,0.008,4.961,0.004,7.441c0,3.227-0.043,6.449,0.023,9.676C165.406,188.86,165.449,185.637,165.453,182.411   M163.75,193.856c-4.012,0.137-4.012,0.18-4.012-3.746c0-5.641,0.043-11.289-0.027-16.93c-0.02-1.453,0.434-1.98,1.902-1.957  c4.492,0.07,3.789-0.258,3.832,3.746c0.027,2.48,0.008,4.961,0.008,7.441c-0.004,3.227-0.043,6.449,0.02,9.676  C165.496,193.372,165.024,193.809,163.75,193.856 M175.043,171.149c-0.055-5.012-3.223-8.039-8.254-8.082  c-4.84-0.039-9.684,0.047-14.52-0.035c-1.746-0.031-2.234,0.754-2.234,2.316c0,0.008,0.011,43.922,0.004,43.922  c0,0.879,0.293,1.512,1.617,1.512c1.918,0,6.316-0.012,6.422-0.012c1.199,0,1.695-0.469,1.668-1.652  c-0.039-1.676-0.039-3.305-0.039-5.023c0-1.711,0.582-2.168,2.148-2.082c1.734,0.098,3.477,0.078,5.211-0.004  c5.059-0.238,7.918-3.086,7.977-8.148C175.125,186.29,175.129,178.719,175.043,171.149" id="svg_2"/><path fill="#192135" d="M146.715,117.062c-0.387-0.145-0.777-0.289-1.297-0.48c0.109-0.312,0.125-0.57,0.266-0.699  c0.316-0.289,1.004-0.184,1.121,0.199C146.891,116.375,146.754,116.734,146.715,117.062 M144.418,104.293  c-0.305-0.344,0.043-0.629,0.262-0.82c0.102-0.086,0.414,0.078,0.824,0.172c-0.18,0.379-0.242,0.703-0.434,0.855  C144.961,104.582,144.555,104.449,144.418,104.293 M143.871,109.035c-0.246-0.371-0.035-0.652,0.422-0.551  c0.152,0.031,0.258,0.277,0.383,0.426c0.012,0.07,0.023,0.141,0.035,0.211C144.418,109.102,143.969,109.184,143.871,109.035   M142.383,121.605c-0.312-0.207-0.555-0.297-0.555-0.387c0.004-0.238,0.098-0.48,0.191-0.711c0.004-0.016,0.387,0.055,0.395,0.109  C142.445,120.879,142.406,121.145,142.383,121.605 M140.184,78.113l-0.234,0.164c-0.27-0.117-0.629-0.172-0.777-0.379  c-0.121-0.164-0.078-0.645,0.066-0.758c0.312-0.246,0.73-0.133,0.926,0.223C140.27,77.559,140.184,77.859,140.184,78.113   M140.117,118.219c0,1.703-1.043,3.098-2.719,3.203l-12.551-1.703c-0.012-10.035,0.047-23.656,0.039-34.57l12.574-2.586  c1.629,0.152,2.656,1.531,2.656,3.199V118.219z M135.637,128.598c-0.418-0.188-0.742-0.266-0.949-0.457  c-0.09-0.086,0.055-0.422,0.094-0.641c0.316,0.098,0.652,0.164,0.941,0.32C135.789,127.855,135.684,128.199,135.637,128.598   M131.324,126.793c-0.441-0.145-0.777-0.152-0.918-0.324c-0.281-0.336-0.215-0.785,0.188-0.957c0.211-0.094,0.688,0.043,0.809,0.23  C131.531,125.938,131.375,126.316,131.324,126.793 M124.539,131.613c-0.129-0.203-0.262-0.41-0.395-0.617  c0.109-0.074,0.215-0.152,0.32-0.23c0.137,0.199,0.285,0.387,0.398,0.598C124.875,131.387,124.652,131.527,124.539,131.613   M123.52,118.738c-0.27-0.125-0.547-0.422-0.621-0.699c-0.039-0.152,0.332-0.414,0.52-0.625c-0.086-0.211-0.172-0.422-0.336-0.809  c0.387,0.102,0.742,0.094,0.867,0.258c0.098,0.133-0.09,0.477-0.148,0.727c0.125,0.254,0.371,0.523,0.34,0.758  C124.121,118.516,123.652,118.801,123.52,118.738 M121.633,111.906c-0.012,0.035-0.316-0.035-0.551-0.066  c-0.031-0.379-0.059-0.664-0.082-0.953c0.273,0.074,0.652,0.066,0.781,0.246C121.891,111.281,121.727,111.652,121.633,111.906   M120.352,74.398c0.199,0.328,0.992,0.133,0.715,0.805c-0.055,0.133-0.371,0.285-0.496,0.234  C120.055,75.242,120.262,74.805,120.352,74.398 M120.133,135.738c0-0.008-1.566,0.836-3.527,1.324V70.188  c2.008-0.434,2.695-0.727,3.527-1.004V135.738z M114.656,81.996c-0.367,0.164-1.035-0.031-1.113-0.426  c-0.055-0.281,0.074-0.711,0.277-0.895c0.152-0.137,0.562,0.02,0.859,0.047C114.637,81.25,115.453,81.633,114.656,81.996   M113.199,135.422c-0.004-0.109-0.008-0.215-0.012-0.32c0.234-0.047,0.469-0.098,0.703-0.145c0.004,0.172,0.004,0.344,0.008,0.512  C113.665,135.453,113.434,135.438,113.199,135.422 M113.086,140.727c-0.02,0.047-0.301,0.059-0.324,0.02  c-0.09-0.18-0.188-0.391-0.172-0.578c0.016-0.191,0.164-0.367,0.273-0.594c0.137,0.184,0.336,0.332,0.367,0.512  C113.266,140.289,113.168,140.523,113.086,140.727 M111.747,95.738c-0.125-0.074-0.25-0.145-0.371-0.219  c0.004-0.012,0.008-0.023,0.016-0.035c-0.047-0.039-0.098-0.07-0.125-0.117c-0.074-0.145,0.008-0.371,0.02-0.562l0.738,0.07  c-0.133,0.023-0.266,0.047-0.398,0.07c-0.078,0.18-0.156,0.359-0.234,0.539C111.497,95.574,111.629,95.652,111.747,95.738   M111.2,126.168c-0.113,0.086-0.371-0.008-0.672-0.027c0.078-0.285,0.078-0.566,0.191-0.621c0.137-0.066,0.445,0,0.531,0.117  C111.336,125.746,111.301,126.086,111.2,126.168 M110.125,140.664c-0.336-0.09-0.586-0.121-0.789-0.234  c-0.047-0.027,0.043-0.477,0.109-0.488c0.254-0.043,0.523,0.016,0.785,0.039C110.204,140.16,110.176,140.344,110.125,140.664   M110.172,84.055c0.027,0.441-0.137,0.73-0.699,0.672c-0.047-0.359-0.09-0.699-0.141-1.105  C109.766,83.594,110.141,83.504,110.172,84.055 M108.946,69.652c-0.332-0.129-0.586-0.16-0.699-0.305  c-0.062-0.078,0.074-0.395,0.203-0.504c0.078-0.066,0.398,0.008,0.465,0.109C109,69.09,108.938,69.316,108.946,69.652   M107.915,125.824c-0.082-0.176-0.262-0.375-0.227-0.52c0.141-0.57,0.512-0.297,0.82-0.207c0.047,0.086,0.093,0.168,0.141,0.25  C108.407,125.508,108.161,125.664,107.915,125.824 M108.235,132.438c-0.055,0.105-0.414,0.062-0.637,0.086  c-0.008-0.172-0.023-0.348-0.02-0.523c0.004-0.125,0.059-0.25,0.059-0.371c-0.004-0.227-0.035-0.449-0.055-0.676  c0.281,0.086,0.559,0.168,0.965,0.293C108.434,131.723,108.395,132.109,108.235,132.438 M107.176,132.508  c-0.02,0.047-0.344-0.027-0.527-0.051c0.047-0.332,0.09-0.672,0.168-1c0.008-0.023,0.312,0.027,0.613,0.059  C107.34,131.91,107.293,132.223,107.176,132.508 M106.836,137.25c-0.328,0.332-1.211,0.242-1.441-0.105  c-0.418-0.492,0.16-0.738,0.375-1.039c0.172-0.246,1.324,0.004,1.359,0.301C107.165,136.676,107.032,137.055,106.836,137.25   M104.926,139.602c-0.117-0.023-0.23-0.047-0.348-0.07c-0.004-0.254-0.012-0.504-0.02-0.758c0.23,0.047,0.457,0.094,0.684,0.141  C105.137,139.145,105.032,139.371,104.926,139.602 M103.868,129.242c-0.379-0.012-0.762-0.73-0.648-1.184  c0.113-0.465,0.395-0.605,0.723-0.422c0.129-0.238,0.234-0.477,0.387-0.672c0.027-0.039,0.348,0.051,0.367,0.121  c0.062,0.254,0.094,0.531,0.062,0.785c-0.031,0.227-0.211,0.43-0.25,0.656C104.442,128.918,104.333,129.258,103.868,129.242   M102.836,79.066c0.32,0.113,0.742,0.145,0.805,0.312c0.082,0.215-0.125,0.535-0.211,0.812c-0.07-0.004-0.145-0.012-0.215-0.016  C103.102,79.844,102.989,79.512,102.836,79.066 M102.254,95.027c-0.34,0.305-0.77,0.117-0.98-0.227  c-0.094-0.156,0.098-0.484,0.156-0.73c0.48-0.254,0.805-0.25,0.941,0.125C102.458,94.438,102.418,94.879,102.254,95.027 M100,74.961  c-0.316-0.137-0.59-0.176-0.629-0.293c-0.059-0.176,0.047-0.406,0.082-0.613c0.188,0.043,0.469,0.031,0.547,0.148  C100.094,74.348,100.012,74.602,100,74.961 M99.407,117.887c-0.082,0.039-0.402-0.191-0.438-0.34  c-0.04-0.184,0.082-0.574,0.176-0.586c0.246-0.031,0.516,0.086,0.773,0.145c0.027,0.09,0.051,0.18,0.078,0.266  C99.805,117.555,99.633,117.781,99.407,117.887 M96.965,81.902c-0.32-0.062-0.84-0.039-0.914-0.203  c-0.137-0.324-0.02-0.758-0.008-1.141c0.41,0.047,0.941-0.039,1.203,0.184C97.574,81.023,97.43,81.492,96.965,81.902   M96.883,132.109c-0.031,0.059-0.277,0.004-0.602-0.004c0.184-0.422,0.289-0.727,0.453-0.992c0.027-0.043,0.312,0.07,0.477,0.109  C97.105,131.52,97.023,131.832,96.883,132.109 M95.758,91.773c-0.188,0.113-0.746-0.086-0.902-0.305  c-0.172-0.242-0.363-0.723,0.324-1.074c0.09,0.039,0.434,0.074,0.504,0.227C95.844,90.984,96.312,91.441,95.758,91.773   M94.809,86.859c0.238,0.176,0.477,0.352,0.715,0.527c-0.477,0.293-0.848,0.457-0.934-0.07C94.566,87.18,94.73,87.012,94.809,86.859   M94.219,136.949c-0.422-0.16-0.691-0.184-0.828-0.332c-0.328-0.348-0.004-0.609,0.254-0.746c0.164-0.09,0.609-0.016,0.637,0.07  C94.348,136.18,94.262,136.461,94.219,136.949 M92.59,80.742c-0.492-0.09-0.922-0.223-0.871-0.812  c0.004-0.078,0.301-0.215,0.441-0.188C92.711,79.844,92.996,80.117,92.59,80.742 M91.41,138.242c-0.27-0.09-0.621-0.109-0.789-0.293  c-0.418-0.469,0.32-0.586,0.363-0.938c0.211,0.047,0.418,0.098,0.742,0.172C91.602,137.602,91.504,137.922,91.41,138.242   M89.883,92.164c0.203-0.395,0.262-0.684,0.422-0.77c0.176-0.09,0.449,0.004,0.684,0.02c-0.051,0.246-0.02,0.586-0.168,0.719  C90.68,92.254,90.348,92.16,89.883,92.164 M88.113,81.633c-0.078-0.16,0.059-0.598,0.203-0.656c0.52-0.219,0.598,0.25,0.762,0.621  C88.711,81.797,88.371,82.176,88.113,81.633 M85.918,118.59c-0.422-0.133-0.668-0.211-0.91-0.285  c0.105-0.285,0.164-0.602,0.34-0.832c0.047-0.062,0.535,0.07,0.645,0.23C86.094,117.855,85.965,118.164,85.918,118.59   M84.004,106.516c-0.086-0.312-0.055-0.777,0.133-1.012c0.242-0.297,0.594-0.145,0.84,0.195c0.336,0.461,0.113,0.789-0.309,1.223  C84.461,106.805,84.059,106.707,84.004,106.516 M84.5,119.809c-0.191,0.094-0.469,0.023-0.914,0.02  c0.16-0.371,0.207-0.676,0.32-0.703c0.223-0.051,0.477,0.055,0.719,0.094C84.59,119.426,84.613,119.75,84.5,119.809 M82.758,139.285  c-0.723-0.145-0.316-0.688-0.312-1.164c0.566-0.031,0.793,0.336,0.914,0.707C83.387,138.914,82.934,139.32,82.758,139.285   M81.801,119.391c-0.234-0.316-0.113-0.672,0.238-0.836c0.133-0.062,0.453,0.055,0.539,0.188c0.098,0.148,0.031,0.406,0.035,0.707  C82.227,119.43,81.887,119.508,81.801,119.391 M81.664,98.547c0.223-0.016,0.473-0.094,0.66-0.02  c0.102,0.043,0.109,0.336,0.211,0.699c-0.426-0.18-0.672-0.285-0.918-0.387C81.633,98.742,81.648,98.645,81.664,98.547   M79.891,118.914c-0.09-0.398,0.055-0.742,0.574-0.793c0.137,0.359,0.258,0.688,0.406,1.082  C80.414,119.277,80.004,119.43,79.891,118.914 M78.52,140.992c-0.074,0.066-0.469-0.051-0.492-0.141  c-0.055-0.234,0.016-0.5,0.031-0.754c0.223,0.047,0.441,0.098,0.809,0.184C78.719,140.609,78.672,140.859,78.52,140.992   M77.621,133.715c0.07,0.004,0.141,0.004,0.211,0.004c0.125,0.277,0.25,0.559,0.375,0.84c-0.039,0.066-0.082,0.133-0.121,0.195  c-0.273-0.055-0.543-0.109-0.816-0.168C77.387,134.297,77.504,134.008,77.621,133.715 M76.977,129.645  c0.223,0.055,0.504,0.047,0.648,0.184c0.098,0.098,0.008,0.391,0.004,0.738c-0.344-0.137-0.629-0.16-0.715-0.305  C76.832,130.117,76.949,129.855,76.977,129.645 M76.016,125.43c0.125-0.312,0.168-0.602,0.332-0.754  c0.102-0.098,0.395,0.02,0.605,0.043c-0.078,0.297-0.156,0.594-0.23,0.895C76.531,125.562,76.344,125.516,76.016,125.43   M75.918,92.906c-0.07,0.148-0.195,0.27-0.383,0.516c-0.375-0.027-0.816,0-1.207-0.129c-0.156-0.051-0.227-0.445-0.281-0.695  c-0.078-0.328,0.059-0.492,0.43-0.523c0.133-0.012,0.344-0.27,0.344-0.414c0-0.418,0.168-0.5,0.504-0.352  C75.684,91.461,76.086,92.547,75.918,92.906 M74.887,97.02c-0.184-0.062-0.508-0.098-0.523-0.191  c-0.043-0.23,0.035-0.492,0.117-0.723c0.016-0.039,0.305,0.027,0.59,0.059C74.996,96.52,74.941,96.77,74.887,97.02 M71.703,94.457  c-0.184,0.051-0.398,0-0.602-0.012c0.039-0.133,0.039-0.34,0.125-0.387c0.168-0.086,0.387-0.086,0.586-0.121  c0.035,0.051,0.066,0.105,0.102,0.156C71.848,94.223,71.801,94.43,71.703,94.457 M71.156,119.66  c-0.137-0.219-0.27-0.438-0.402-0.656v22.074c0-0.043-2.352-0.145-2.352-0.195V72.926c0,0.027,2.352,0.055,2.352,0.078v45.961  c0.094-0.074,0.184-0.148,0.273-0.219c0.16,0.164,0.363,0.312,0.457,0.512C71.516,119.324,71.273,119.52,71.156,119.66   M67.301,127.148c-0.02,0.047-0.578-0.066-0.578-0.125c-0.02-0.32,0.031-0.648,0.121-0.957c0.012-0.039,0.391,0.031,0.75,0.066  C67.484,126.559,67.434,126.871,67.301,127.148 M66.352,119.164c-0.094-0.043-0.195-0.074-0.301-0.105v21.473  c-5.844-0.41-14.695-2.031-17.633-3.371v-33.52c-0.027-0.023-0.086-0.035-0.102-0.062c-0.105-0.188,0.035-0.512,0.066-0.777  c0.012,0.004,0.023,0.004,0.035,0.004V70.93c5.879,0.84,11.754,1.492,17.633,1.883v45.109c0.176,0.066,0.379,0.168,0.633,0.262  C66.547,118.59,66.449,118.875,66.352,119.164 M47.586,132.246c-0.082,0.039-0.16,0.082-0.242,0.125  c-0.262-0.172-0.578-0.305-0.766-0.539c-0.094-0.117,0.047-0.422,0.082-0.641c0.348,0.098,0.723,0.145,1.023,0.32  C47.766,131.559,47.625,131.988,47.586,132.246 M46.715,96.18c0.051-0.102,0.418-0.031,0.641-0.039  c0.055,0.074,0.109,0.145,0.16,0.219c-0.164,0.27-0.305,0.559-0.516,0.789c-0.066,0.07-0.32-0.039-0.488-0.066  C46.57,96.777,46.574,96.441,46.715,96.18 M45.648,88.191c0.156-0.43,0.188-0.719,0.348-0.867c0.078-0.074,0.539,0.074,0.578,0.195  c0.066,0.203-0.027,0.504-0.156,0.695C46.367,88.297,46.059,88.211,45.648,88.191 M45.164,71.711c0.148-0.23,0.219-0.398,0.34-0.488  c0.082-0.062,0.25-0.008,0.375-0.004c-0.039,0.184-0.043,0.395-0.141,0.543C45.699,71.82,45.453,71.742,45.164,71.711   M45.398,108.684c-0.148,0.105-0.406,0.066-0.777,0.105c0.152-0.336,0.195-0.57,0.336-0.695c0.082-0.074,0.43-0.027,0.465,0.055  C45.492,108.301,45.496,108.613,45.398,108.684 M44.633,121.398c-0.121,0.074-0.344-0.004-0.66-0.027  c0.117-0.289,0.16-0.551,0.246-0.566c0.176-0.035,0.375,0.066,0.566,0.113C44.738,121.082,44.742,121.328,44.633,121.398   M42.992,94.102c-0.387-0.098-0.645-0.164-1.059-0.27c0.176-0.254,0.281-0.535,0.484-0.648c0.125-0.074,0.504,0.047,0.574,0.184  C43.09,93.555,43,93.836,42.992,94.102 M42.523,109.863c-0.34-0.152-0.59-0.188-0.676-0.328c-0.09-0.141-0.016-0.387-0.016-0.586  c0.234,0.035,0.516,0.004,0.68,0.129C42.613,109.152,42.527,109.469,42.523,109.863 M41.102,122.289  c-0.246,0.047-0.52-0.039-0.781-0.07c0.066-0.199,0.098-0.543,0.211-0.57c0.254-0.066,0.547,0.02,0.992,0.062  C41.32,122.008,41.23,122.266,41.102,122.289 M69.215,70.742c-0.25,0.16-0.402,0.258-0.734,0.469  c-0.016-0.395-0.027-0.664-0.039-0.938C68.684,70.422,68.922,70.566,69.215,70.742 M77.875,102.969  c-0.512-0.199-1.066-0.238-0.832-0.891c0.051-0.137,0.43-0.281,0.59-0.227C78.238,102.055,77.973,102.492,77.875,102.969   M77.383,80.633c-0.074-0.129,0.031-0.363,0.055-0.555c0.203,0.066,0.465,0.078,0.586,0.215c0.094,0.105,0.016,0.367,0.012,0.727  C77.723,80.848,77.473,80.785,77.383,80.633 M85.004,94.723c0.32-0.039,0.652,0.035,0.977,0.066  c-0.066,0.266-0.066,0.684-0.223,0.754c-0.234,0.105-0.578-0.035-1.051-0.09C84.859,95.066,84.914,94.734,85.004,94.723   M83.648,113.938c-0.527,0.363-0.699-0.301-1.074-0.395c0.066-0.246,0.137-0.492,0.254-0.926c0.441,0.164,0.816,0.199,1.012,0.406  C84.125,113.324,83.988,113.699,83.648,113.938 M84.281,70.863c0.207-0.094,0.66-0.02,0.785,0.145  c0.367,0.477,0.234,1.555-0.133,1.758c-0.457,0.254-0.652,0.172-0.996-0.414C83.629,71.82,83.754,71.102,84.281,70.863   M88.922,73.129c-0.211,0.086-0.551,0.012-0.754-0.117c-0.082-0.051,0.051-0.438,0.117-0.84c0.371,0.129,0.715,0.148,0.777,0.293  C89.141,72.645,89.051,73.078,88.922,73.129 M104.949,89.789c-0.176-0.094-0.254-0.367-0.379-0.559  c-0.062-0.027-0.121-0.051-0.184-0.074c0.145-0.16,0.359-0.48,0.426-0.453c0.398,0.168,0.785,0.387,1.121,0.656  c0.074,0.062-0.07,0.582-0.125,0.582C105.52,89.95,105.199,89.922,104.949,89.789 M104.23,120.012  c-0.152-0.242-0.516-0.48-0.129-0.793c0.348-0.285,0.789-0.344,1.066,0.012c0.223,0.281,0.312,0.703,0.355,1.078  c0.012,0.121-0.281,0.34-0.473,0.402c-0.141,0.047-0.34-0.098-0.512-0.156c0.02-0.039,0.039-0.078,0.059-0.117  C104.473,120.297,104.332,120.164,104.23,120.012 M113.121,94.172c0.234,0.094,0.523,0.133,0.684,0.297  c0.086,0.09-0.039,0.391-0.07,0.598c-0.223-0.074-0.441-0.145-0.762-0.25C113.043,94.516,113.082,94.344,113.121,94.172   M114.816,75.957c0.047,0.031-0.117,0.531-0.18,0.527c-0.309-0.008-0.621-0.109-0.93-0.18c0.059-0.191,0.117-0.383,0.223-0.73  C114.309,75.727,114.59,75.801,114.816,75.957 M40.84,64.578c0.027-0.027,0.043-0.059,0.066-0.09  c6.188,1.797,23.098,3.469,41.816,3.469c10.848,0,20.754-0.562,28.383-1.383c0.098-0.258,0.16-0.438,0.227-0.609  c0.145,0.059,0.383,0.094,0.41,0.184c0.027,0.109-0.035,0.246-0.094,0.363c5.262-0.582,9.402-1.289,11.922-2.02  c0.031,0.039,0.043,0.02,0.082,0.055c0.008,0.031,0.035,0.129,0.035,0.16c0,2.195-18.34,4.93-40.965,4.93s-41.918-2.734-41.918-4.93  C40.805,64.66,40.824,64.621,40.84,64.578 M63.957,64.848c0.102-0.266,0.562-0.395,0.859-0.586c0.152,0.273,0.398,0.539,0.422,0.82  c0.016,0.176-0.309,0.379-0.52,0.609C64.457,65.465,63.676,65.59,63.957,64.848 M75.227,65.539c0.223-0.027,0.453-0.055,0.684-0.082  c0.055,0.051,0.105,0.102,0.156,0.152c-0.16,0.219-0.316,0.621-0.48,0.625C75.238,66.242,75.047,65.957,75.227,65.539 M89.301,60.43  c0.344-0.047,0.621,0.129,0.234,0.5c-0.105,0.102-0.273,0.141-0.41,0.207c-0.07-0.035-0.137-0.066-0.207-0.102  C89.043,60.824,89.148,60.453,89.301,60.43 M116.215,63.176c0.25-0.078,0.566,0.043,0.852,0.078  c-0.043,0.277-0.086,0.555-0.156,1.012c-0.445-0.137-0.805-0.145-0.953-0.32C115.715,63.656,115.875,63.281,116.215,63.176   M136.531,77.688c0.062,0.027,0.09,0.133,0.191,0.293c0.043,0.184,0.16,0.465,0.148,0.742c-0.004,0.164-0.18,0.379-0.336,0.461  c-0.133,0.07-0.426,0.035-0.508-0.066c-0.094-0.117-0.039-0.359-0.047-0.547c-0.004-0.164-0.008-0.328-0.012-0.492  c-0.012-0.195-0.023-0.391-0.035-0.582C136.133,77.559,136.34,77.605,136.531,77.688 M145.777,109.832  c0.258,0.082,0.551,0.113,0.758,0.266c0.078,0.059,0.012,0.535-0.066,0.559c-0.242,0.066-0.516,0.008-0.926-0.004  C145.652,110.27,145.715,110.051,145.777,109.832 M147.16,86.438c-0.141,0.113-0.426,0.043-0.852,0.059  c0.156-0.375,0.184-0.645,0.316-0.719c0.141-0.078,0.465-0.043,0.547,0.059v-1.777c0-5.938-3.82-9.258-9.691-8.816l-12.527,2.324  c-0.004-6.402-0.008-10.754-0.008-10.754c0.961-0.961,1.113-2.074,1.113-2.867c0-1.172-0.953-2.004-1.879-2.559  c-3.602-2.172-22.074-3.781-42.66-3.781h-0.422c-3.434,0-6.75,0.062-9.93,0.16c-0.016,0.07-0.176,0.211-0.273,0.324  c0.008,0.004,0.02,0.008,0.027,0.008c-0.004,0.004-0.008,0.008-0.015,0.008c0.102,0.07,0.23,0.125,0.281,0.223  c0.117,0.227,0.281,0.488,0.262,0.723c-0.02,0.156-0.324,0.422-0.485,0.406c-0.293-0.02-0.602-0.172-0.84-0.355  c-0.074-0.059-0.004-0.449,0.117-0.582c0.164-0.188,0.438-0.281,0.664-0.414c-0.004-0.004-0.011-0.008-0.015-0.012l0.004-0.004  c-0.164-0.074-0.324-0.148-0.562-0.25c0.012-0.016,0.02-0.035,0.031-0.051c-15.484,0.531-27.289,2.105-30.238,3.34  c-1.234,0.516-2.359,1.258-2.48,2.711c-0.07,0.824,0.191,1.984,1.367,3.176v59.281c0.086,0.023,0.172,0.043,0.281,0.07  c-0.113,0.254-0.16,0.484-0.281,0.594v8.023c0,1.848,3.961,3.898,10.391,5.613c-0.125-0.223-0.223-0.445,0.129-0.633  c0.145-0.078,0.418,0.09,0.629,0.145c-0.027,0.051-0.055,0.098-0.082,0.148c0.219,0.203,0.406,0.414,0.371,0.598  c8.07,2.031,19.613,3.531,32.09,3.531c23.344,0,42.5-5.145,42.5-9.316l-0.027-7.73l12.461,1.688c6.395,0,9.699-3.305,9.699-10.285  V86.391C147.164,86.402,147.168,86.43,147.16,86.438" id="svg_3"/><path fill="#FFA800" d="M82.703,30.566h0.004c1.859,0,3.359-1.992,3.355-3.848L86.031,4.176C86.027,2.32,84.523,0,82.672,0h-0.008  c-1.855,0-3.355,2.09-3.355,3.945l0.035,22.492C79.348,28.293,80.852,30.566,82.703,30.566 M101.152,34.922  c0.418,0.109,0.812,0.098,0.969,0.285c0.391,0.465-0.211,0.641-0.43,0.809c-0.168,0.129-0.555-0.027-0.844-0.055  C100.934,35.664,101.02,35.371,101.152,34.922 M106.242,25.617c0.078,0.094,0.152,0.188,0.223,0.285  c-0.176,0.195-0.352,0.387-0.527,0.582c-0.09-0.184-0.301-0.434-0.242-0.543C105.777,25.781,106.051,25.723,106.242,25.617   M108.688,19.023c-0.297,0.598-0.551,0.711-0.852,0.391c-0.09-0.098-0.055-0.312-0.078-0.473  C108.035,18.965,108.316,18.988,108.688,19.023 M111.977,15.535c0.078,0.148,0.156,0.293,0.277,0.52  c-0.285,0.148-0.57,0.305-0.855,0.457c-0.023-0.188-0.047-0.375-0.07-0.562C111.543,15.812,111.762,15.676,111.977,15.535   M100.176,36.73c0.562,0.359,1.191,0.531,1.809,0.531c1.109,0,2.191-0.547,2.836-1.551l12.277-19.188  c1-1.562,0.547-3.641-1.016-4.641s-3.641-0.543-4.641,1.02L99.16,32.09C98.16,33.652,98.613,35.73,100.176,36.73 M53.934,12.902  c-0.996-1.562-3.078-2.02-4.641-1.02s-2.02,3.078-1.02,4.641l12.281,19.188c0.641,1.004,1.727,1.551,2.836,1.551  c0.617,0,1.246-0.172,1.805-0.531c1.566-1,2.02-3.078,1.02-4.641L53.934,12.902z M125.07,40.379c0.031,0.09,0.062,0.18,0.09,0.273  c-0.301,0.133-0.602,0.266-0.902,0.398c-0.066-0.258-0.273-0.598-0.18-0.77C124.469,39.594,124.719,40.41,125.07,40.379   M127.902,39.043c0.242-0.105,0.773-0.047,0.863,0.117c0.152,0.27,0.047,0.68,0.051,1.031c-0.336-0.051-0.672-0.102-1.156-0.18  C127.758,39.562,127.746,39.109,127.902,39.043 M139.379,38.117c1.59-0.953,2.105-3.02,1.152-4.609  c-0.949-1.594-3.016-2.113-4.609-1.156l-19.539,11.707c-1.594,0.953-2.109,3.02-1.156,4.609c0.629,1.051,1.742,1.633,2.887,1.633  c0.586,0,1.184-0.152,1.723-0.477L139.379,38.117z M25.996,38.117l19.543,11.707c0.539,0.324,1.137,0.477,1.723,0.477  c1.145,0,2.258-0.582,2.887-1.633c0.953-1.59,0.438-3.656-1.156-4.609L29.449,32.352c-1.59-0.953-3.656-0.438-4.609,1.156  C23.887,35.098,24.406,37.164,25.996,38.117" id="svg_4"/><path fill="#458766" d="M35.883,207.551c-0.066-0.109-0.137-0.219-0.203-0.328c0.039-0.043,0.078-0.094,0.121-0.137  c0.16-0.156,0.32-0.309,0.48-0.461c0.086,0.219,0.293,0.492,0.227,0.641C36.434,207.422,36.102,207.461,35.883,207.551   M35.594,174.649c0.148-0.047,0.387,0.027,0.516,0.133c0.07,0.055,0.031,0.402-0.027,0.426c-0.172,0.059-0.379,0.023-0.68,0.023  C35.484,174.958,35.5,174.68,35.594,174.649 M34.305,184.286c-0.207-0.043-0.41-0.09-0.691-0.148  c0.066-0.23,0.109-0.395,0.152-0.559c0.184,0.062,0.418,0.082,0.535,0.207C34.383,183.879,34.309,184.114,34.305,184.286   M35.656,163.036c-1.797,0.098-3.602,0.07-5.402,0.008c-1.406-0.047-2.023,0.477-2.02,1.945c0.027,14.652,0.023,29.309,0,43.965  c0,1.383,0.578,1.867,1.914,1.816c1.859-0.066,3.734-0.117,5.586,0.016c1.777,0.125,2.23-0.625,2.215-2.281  c-0.062-7.137-0.027-14.281-0.027-21.422c0-7.266-0.039-14.531,0.027-21.793C37.969,163.563,37.34,162.946,35.656,163.036   M12.352,166.969c-0.043-0.082-0.082-0.16-0.125-0.242c0.102-0.367,0.355-0.531,0.742-0.449c0.078,0.016,0.129,0.172,0.191,0.266  C12.891,166.688,12.621,166.829,12.352,166.969 M22.328,163.04c-6.766,0.047-13.535,0.035-20.305,0.008  c-1.34-0.008-1.883,0.492-1.957,1.766c-0.09,1.547-0.062,3.16-0.062,4.75c0,1.219,0.441,1.688,1.621,1.688  c1.086,0,1.801-0.008,2.855-0.004c2.613,0.004,2.617,0.004,2.617,2.531c0.004,5.773,0,11.551,0,17.324  c0,5.836,0.039,11.672-0.023,17.508c-0.016,1.59,0.488,2.273,2.152,2.172c1.793-0.113,3.602-0.109,5.398,0  c1.598,0.094,2.18-0.426,2.156-2.098c-0.09-5.898-0.035-11.797-0.035-17.695c0-5.43,0.016-10.859-0.02-16.285  c-0.078,0.027-0.125,0.082-0.219,0.098c-0.418-0.418-0.742-0.836-0.094-1.262c-0.195-0.266-0.324-0.441-0.453-0.621  c0.156-0.078,0.344-0.262,0.461-0.223c0.109,0.035,0.223,0.086,0.328,0.145c0.062-1.121,0.547-1.457,1.809-1.488  c1.559-0.035,2.875-0.105,3.848-0.105c1.176,0,1.688-0.523,1.73-1.691c0.051-1.484,0.004-2.965,0.004-4.453  C24.141,163.637,23.863,163.028,22.328,163.04 M71.043,164.875c-0.215,0.031-0.438,0-0.785-0.012  c0.086-0.305,0.129-0.465,0.176-0.625c0.223,0.074,0.457,0.117,0.656,0.234C71.137,164.5,71.082,164.868,71.043,164.875   M69.684,187.391c-0.098,0.094-0.445-0.074-0.68-0.125c0.094-0.258,0.188-0.516,0.312-0.859  C69.809,186.79,70.012,187.083,69.684,187.391 M68.879,184.61c-0.191,0.09-0.422,0.086-0.836,0.152  c0.176-0.367,0.223-0.629,0.367-0.715c0.117-0.066,0.383,0.051,0.535,0.156C68.996,184.239,68.953,184.575,68.879,184.61   M66.473,184.145c-0.086,0.039-0.172,0.074-0.262,0.109c-0.117-0.285-0.238-0.574-0.355-0.859c0.117-0.047,0.277-0.164,0.352-0.125  C66.582,183.469,66.625,183.793,66.473,184.145 M65.074,173.786c-0.047-0.035,0.102-0.566,0.281-0.68  c0.301-0.191,0.715-0.355,1.074,0.336c-0.078,0.18-0.188,0.742-0.352,0.758C65.754,174.227,65.379,173.989,65.074,173.786   M62.551,194.688c-0.039,0.051-0.434-0.051-0.484-0.164c-0.07-0.16-0.039-0.449,0.074-0.578c0.082-0.094,0.359-0.012,0.707-0.008  C62.727,194.278,62.684,194.516,62.551,194.688 M61.715,168.536c-0.059-0.145,0.047-0.359,0.082-0.547  c0.203,0.047,0.504,0.027,0.586,0.152c0.09,0.133-0.031,0.402-0.086,0.766C62.012,168.735,61.773,168.672,61.715,168.536   M61.047,194.211c-0.316-0.133-0.555-0.156-0.629-0.281c-0.207-0.34-0.176-0.719,0.207-0.91c0.148-0.074,0.59,0.074,0.59,0.117  C61.211,193.454,61.129,193.766,61.047,194.211 M58.895,184.465c-0.27-0.188-0.461-0.254-0.527-0.387  c-0.055-0.105,0.035-0.289,0.062-0.438c0.164,0.051,0.395,0.055,0.477,0.164C58.984,183.915,58.91,184.133,58.895,184.465   M51.203,192.157c0.051-0.176,0.09-0.488,0.156-0.496c0.246-0.023,0.531,0,0.746,0.113c0.109,0.059,0.094,0.348,0.168,0.688  C51.82,192.333,51.512,192.247,51.203,192.157 M51.871,197.235c-0.156,0.133-0.645,0.152-0.727,0.035  c-0.156-0.211-0.242-0.277-0.52-0.262c-0.398,0.023-0.742-0.258-0.672-0.648c0.062-0.352,0.301-0.75,0.586-0.949  c0.207-0.148,0.621-0.039,0.934,0.016c0.117,0.02,0.203,0.203,0.312,0.32C51.918,196.239,52.465,196.735,51.871,197.235   M50.105,176.129c0.117-0.098,0.398,0.004,0.605,0.016c0.047,0.078,0.094,0.156,0.141,0.234c-0.086,0.184-0.152,0.504-0.266,0.523  c-0.262,0.035-0.547-0.07-0.82-0.121C49.875,176.559,49.934,176.274,50.105,176.129 M47.754,176.852  c-0.219-0.098-0.496-0.148-0.625-0.316c-0.078-0.098,0.027-0.453,0.16-0.559c0.129-0.102,0.395-0.031,0.734-0.043  C47.91,176.329,47.832,176.59,47.754,176.852 M46.988,183.688c-0.305-0.152-0.59-0.219-0.609-0.324  c-0.027-0.18,0.113-0.387,0.184-0.578c0.195,0.078,0.426,0.117,0.57,0.25C47.191,183.09,47.07,183.344,46.988,183.688   M68.918,163.036c-1.668,0.113-3.359,0.145-5.023-0.008c-1.902-0.172-2.328,0.688-2.309,2.391c0.07,5.336,0.031,10.676,0.02,16.016  c0,0.723-0.086,1.441-0.133,2.164c-0.242,0.098-0.48,0.195-0.723,0.297c-0.496-0.832-1.102-1.617-1.465-2.504  c-0.266-0.648-0.516-1.301-0.777-1.953c-0.027-0.016-0.062-0.016-0.086-0.035c-0.047-0.039-0.043-0.137-0.027-0.25  c-1.566-3.91-3.086-7.84-4.711-11.73c-2.223-5.332-1.039-4.258-6.461-4.355c-2.422-0.043-2.527,0.098-2.527,2.516  c-0.004,8.938,0,17.879,0,26.82c0,3.824-0.008,7.652-0.016,11.477c0.211-0.113,0.449-0.141,0.641,0.066  c0.117,0.125-0.047,0.535-0.117,0.809c-0.02,0.074-0.164,0.113-0.234,0.156c0.238,0.125,0.598,0.25,0.59,0.32  c-0.043,0.297-0.148,0.613-0.324,0.859c-0.074,0.109-0.348-0.082-0.555-0.324c-0.004,1.008,0.004,2.02-0.004,3.027  c-0.012,1.414,0.449,2.062,1.941,1.98c1.609-0.086,3.227-0.02,4.84-0.02c2.914,0,2.918,0,2.918-2.828  c0-5.277-0.008-10.555,0.008-15.832c0-0.629,0.105-1.258,0.16-1.887c0.188-0.047,0.371-0.098,0.555-0.145  c0.367,0.566,0.832,1.094,1.086,1.703c1.934,4.695,3.836,9.398,5.727,14.105c2.418,6.02,0.883,4.719,7.352,4.883  c0.125,0.004,0.25-0.012,0.371,0c1.141,0.105,1.555-0.449,1.527-1.543c-0.043-1.676-0.012-3.355-0.012-5.031  c0-12.973-0.027-25.949,0.035-38.926C71.192,163.516,70.617,162.918,68.918,163.036" id="svg_5"/></g></svg>